<?xml version="1.0" encoding="utf-8"?>
<svg xmlns="http://www.w3.org/2000/svg" width="204" height="40" viewBox="0 0 204 40">
<script>console.log('futunatura')</script>
    <g fill="none" fill-rule="evenodd">
        <g>
            <path fill="#3BB7B9" d="M32.252 12.885c-.24 0-.48-.013-.72-.053-2.537-.32-4.54-2.323-4.86-4.86-.04-.24-.053-.48-.053-.72 0-3.845-3.137-6.981-6.981-6.981-3.845 0-6.968 3.136-6.968 6.981 0 3.844 3.123 6.968 6.968 6.968 3.11 0 5.646 2.536 5.646 5.646S22.748 25.5 19.638 25.5c-3.845 0-6.968 3.137-6.968 6.982 0 3.844 3.123 6.968 6.968 6.968 3.844 0 6.981-3.124 6.981-6.968 0-.24.013-.48.053-.721.32-2.537 2.323-4.552 4.86-4.873.24-.04.48-.053.72-.053 3.844 0 6.981-3.123 6.981-6.968 0-3.844-3.137-6.981-6.981-6.981"/>
            <path fill="#B4C3C6" d="M7.023 12.885c-3.844 0-6.968 3.137-6.968 6.981 0 3.845 3.124 6.968 6.968 6.968 3.858 0 6.982-3.123 6.982-6.968 0-3.844-3.124-6.981-6.982-6.981"/>
            <path fill="#002C42" d="M65.257 10.346H53.302c-.13 0-.235.044-.33.14-.097.096-.141.201-.141.33v18.086c0 .13.044.235.14.331.096.096.201.14.331.14h2.268c.13 0 .235-.044.33-.14.097-.096.142-.2.142-.33v-6.696h8.656c.13 0 .234-.045.33-.14.096-.097.141-.202.141-.332v-1.988c0-.129-.045-.234-.141-.33-.096-.096-.201-.14-.33-.14h-8.656v-6.001h9.215c.13 0 .235-.045.33-.14.097-.096.14-.201.14-.332v-1.988c0-.13-.044-.234-.139-.329-.096-.097-.2-.141-.33-.141M81.243 15.385h-2.127c-.13 0-.235.044-.331.14-.096.096-.14.2-.14.331v7.112c0 1.178-.285 2.14-.846 2.862-.576.741-1.414 1.118-2.491 1.118-1.174 0-2.039-.38-2.57-1.128-.508-.719-.767-1.679-.767-2.852v-7.112c0-.13-.044-.234-.14-.332-.096-.095-.201-.14-.33-.14h-2.128c-.13 0-.235.045-.33.141-.097.096-.141.2-.141.331v7.531c0 .854.092 1.675.273 2.44.175.752.478 1.418.901 1.98.419.559.985 1.01 1.686 1.342.705.335 1.615.505 2.706.505.843 0 1.57-.162 2.159-.483.609-.332 1.124-.707 1.531-1.114l.487-.485v1.33c0 .131.044.236.14.33.096.097.201.142.331.142h2.127c.13 0 .235-.045.33-.14.096-.097.141-.202.141-.331V15.856c0-.13-.045-.234-.141-.332-.095-.095-.2-.14-.33-.14M94.653 26.584h-1.707c-.935 0-1.568-.2-1.935-.614-.354-.397-.534-.927-.534-1.574v-6.22h3.897c.13 0 .234-.045.329-.14.097-.098.141-.203.141-.332v-1.848c0-.13-.044-.234-.14-.332-.096-.095-.201-.14-.33-.14h-3.897v-4.847c0-.13-.045-.234-.141-.332-.096-.096-.2-.14-.33-.14h-2.127c-.13 0-.235.044-.33.14-.097.097-.142.202-.142.332v4.848h-2.132c-.13 0-.236.044-.33.14-.097.096-.142.2-.142.331v1.848c0 .13.045.235.14.33.096.097.201.141.332.141h2.132v6.304c0 1.663.444 2.906 1.32 3.694.883.797 2.18 1.2 3.854 1.2h2.072c.13 0 .236-.044.331-.14.096-.096.141-.201.141-.33v-1.849c0-.129-.045-.234-.141-.33-.095-.096-.2-.14-.33-.14M110.64 15.385h-2.127c-.13 0-.235.044-.33.14-.098.097-.142.202-.142.331v7.112c0 1.178-.285 2.14-.845 2.862-.578.741-1.415 1.118-2.491 1.118-1.174 0-2.04-.38-2.57-1.128-.509-.718-.767-1.678-.767-2.852v-7.112c0-.129-.045-.234-.141-.333-.095-.094-.2-.138-.33-.138H98.77c-.13 0-.235.044-.332.14-.095.095-.14.2-.14.331v7.531c0 .856.092 1.677.273 2.44.176.752.479 1.418.902 1.98.419.56.986 1.01 1.686 1.342.704.335 1.615.505 2.706.505.842 0 1.569-.162 2.16-.483.607-.332 1.123-.707 1.53-1.114l.486-.485v1.33c0 .13.044.235.14.331.097.096.201.14.332.14h2.127c.13 0 .234-.044.33-.14.096-.096.14-.2.14-.33V15.856c0-.13-.044-.235-.14-.333-.096-.094-.2-.138-.33-.138M130.182 10.346h-2.268c-.13 0-.235.044-.33.14-.097.096-.141.201-.141.33v12.467l-8.36-12.42c-.056-.067-.172-.19-.33-.349-.112-.112-.288-.168-.526-.168h-1.961c-.13 0-.234.044-.33.14-.096.096-.14.201-.14.33v18.086c0 .13.044.235.14.332.096.095.2.14.33.14h2.268c.13 0 .235-.045.33-.14.097-.096.141-.2.141-.332V16.436l8.361 12.42c.058.07.171.192.33.349.114.113.285.168.525.168h1.96c.13 0 .234-.044.33-.14.097-.096.142-.201.142-.33V10.815c0-.129-.045-.234-.14-.33-.098-.096-.202-.14-.331-.14M143.96 23.443c0 .432-.093.857-.276 1.264-.184.407-.461.778-.826 1.104-.365.323-.816.582-1.34.77-.52.187-1.123.282-1.791.282-.582 0-1.099-.104-1.534-.306-.631-.293-.765-.775-.765-1.126 0-.52.207-.941.617-1.249.373-.282.954-.486 1.775-.628l4.14-.73v.62zm1.445-6.926c-.52-.457-1.15-.81-1.874-1.049-.736-.24-1.572-.363-2.488-.363-.913 0-1.726.121-2.41.362-.687.24-1.272.55-1.738.92-.467.37-.83.769-1.082 1.184-.25.415-.413.808-.482 1.167-.021.109.01.145.045.176.081.07.173.1.292.1h2.603c.132 0 .253-.02.356-.062.11-.044.237-.13.38-.257.256-.237.532-.43.817-.573.306-.153.704-.227 1.22-.227.794 0 1.476.175 2.027.52.59.371.89.998.89 1.865v.239l-4.8.825c-1.479.252-2.67.732-3.539 1.426-.85.677-1.265 1.593-1.265 2.801 0 .596.11 1.146.325 1.634.217.495.528.929.925 1.29.399.365.902.651 1.496.852.604.204 1.299.307 2.065.307 1.085 0 1.987-.182 2.683-.542.693-.36 1.228-.797 1.594-1.3l.515-.71v1.8c0 .131.045.236.14.331.096.096.202.14.331.14h2.128c.13 0 .235-.044.332-.14.094-.095.139-.2.139-.33v-8.231c0-.912-.143-1.729-.426-2.427-.28-.692-.684-1.273-1.2-1.728zM159.718 26.584h-1.709c-.933 0-1.566-.2-1.934-.613-.354-.398-.534-.928-.534-1.575v-6.22h3.896c.13 0 .235-.045.33-.14.097-.098.141-.202.141-.332v-1.848c0-.13-.044-.235-.14-.332-.096-.095-.2-.14-.331-.14h-3.896v-4.847c0-.13-.044-.234-.141-.331-.096-.097-.2-.141-.331-.141h-2.127c-.13 0-.234.044-.33.14-.096.096-.14.202-.14.332v4.848h-2.134c-.13 0-.234.044-.33.14-.096.095-.14.2-.14.331v1.848c0 .13.044.235.138.33.098.097.202.141.332.141h2.134v6.304c0 1.663.443 2.906 1.318 3.694.885.797 2.182 1.2 3.856 1.2h2.072c.129 0 .235-.044.332-.14.094-.096.139-.2.139-.33v-1.849c0-.13-.045-.234-.14-.33-.096-.096-.202-.14-.331-.14M175.703 15.385h-2.126c-.13 0-.235.044-.331.14-.096.095-.14.2-.14.331v7.112c0 1.178-.285 2.14-.845 2.862-.577.741-1.415 1.118-2.493 1.118-1.174 0-2.039-.38-2.57-1.128-.508-.717-.766-1.677-.766-2.852v-7.112c0-.13-.044-.235-.14-.333-.096-.094-.202-.138-.33-.138h-2.129c-.129 0-.234.044-.332.14-.094.095-.139.2-.139.331v7.531c0 .855.092 1.675.273 2.44.176.753.48 1.42.902 1.98.42.559.987 1.01 1.687 1.342.704.335 1.614.505 2.704.505.843 0 1.57-.162 2.16-.483.61-.332 1.125-.706 1.532-1.114l.486-.485v1.33c0 .131.044.236.139.331.097.096.201.14.332.14h2.126c.13 0 .235-.044.33-.14.098-.096.143-.202.143-.33V15.856c0-.128-.045-.234-.142-.333-.096-.094-.2-.138-.33-.138M188.947 15.385h-1.261c-.849 0-1.54.114-2.056.34-.521.229-1.017.56-1.474.983l-.478.444v-1.296c0-.13-.044-.235-.14-.333-.097-.093-.202-.138-.33-.138h-2.13c-.129 0-.234.044-.331.14-.095.096-.14.201-.14.331v13.047c0 .13.045.234.14.33.097.096.202.14.331.14h2.13c.129 0 .234-.044.332-.141.094-.095.138-.2.138-.33v-7.279c0-1.194.278-2.076.824-2.623.55-.547 1.432-.825 2.624-.825h1.82c.13 0 .234-.044.33-.14.097-.097.142-.202.142-.331v-1.848c0-.129-.045-.234-.142-.33-.096-.097-.2-.141-.33-.141M200.71 23.443c0 .432-.093.857-.277 1.264-.183.407-.46.778-.826 1.104-.361.322-.813.58-1.34.77-.52.187-1.123.282-1.79.282-.583 0-1.1-.104-1.534-.306-.632-.295-.765-.775-.765-1.126 0-.52.206-.941.616-1.249.374-.282.954-.486 1.775-.628l4.14-.73v.62zm1.445-6.926c-.52-.457-1.15-.81-1.875-1.049-.734-.24-1.57-.363-2.487-.363-.914 0-1.727.121-2.411.362-.685.24-1.27.55-1.738.92-.467.37-.83.77-1.08 1.183-.252.417-.414.81-.482 1.168-.023.11.008.145.044.176.079.069.174.1.292.1h2.603c.132 0 .252-.02.355-.062.11-.044.238-.13.38-.257.256-.237.533-.43.817-.573.306-.153.705-.227 1.22-.227.796 0 1.478.175 2.028.52.59.371.889.998.889 1.865v.239l-4.799.825c-1.48.252-2.67.732-3.539 1.426-.851.678-1.265 1.594-1.265 2.801 0 .593.11 1.143.326 1.635.215.494.527.928.923 1.29.4.364.902.65 1.496.851.606.204 1.3.307 2.066.307 1.085 0 1.987-.182 2.683-.542.695-.36 1.23-.798 1.593-1.3l.516-.713v1.804c0 .13.044.235.139.33.097.096.202.14.331.14h2.128c.13 0 .237-.044.334-.141.093-.094.137-.199.137-.33v-8.23c0-.912-.143-1.729-.426-2.427-.28-.693-.683-1.274-1.198-1.728z"/>
            <path fill="#2ABFC9" d="M32.252 12.885c-.24 0-.48-.013-.72-.053-2.537-.32-4.54-2.323-4.86-4.86-.04-.24-.053-.48-.053-.72 0-3.845-3.137-6.981-6.981-6.981-3.845 0-6.968 3.136-6.968 6.981 0 3.844 3.123 6.968 6.968 6.968 3.11 0 5.646 2.536 5.646 5.646S22.748 25.5 19.638 25.5c-3.845 0-6.968 3.137-6.968 6.982 0 3.844 3.123 6.968 6.968 6.968 3.844 0 6.981-3.124 6.981-6.968 0-.24.013-.48.053-.721.32-2.537 2.323-4.552 4.86-4.873.24-.04.48-.053.72-.053 3.844 0 6.981-3.123 6.981-6.968 0-3.844-3.137-6.981-6.981-6.981"/>
            <path fill="#B9CAD2" d="M7.023 12.885c-3.844 0-6.968 3.137-6.968 6.981 0 3.845 3.124 6.968 6.968 6.968 3.858 0 6.982-3.123 6.982-6.968 0-3.844-3.124-6.981-6.982-6.981"/>
        </g>
    </g>
</svg>
